<?xml version="1.0" encoding="utf-8"?>
<!-- Generator: Adobe Illustrator 22.0.0, SVG Export Plug-In . SVG Version: 6.00 Build 0)  -->
<svg version="1.1" id="Capa_1" xmlns="http://www.w3.org/2000/svg" xmlns:xlink="http://www.w3.org/1999/xlink" x="0px" y="0px"
	 viewBox="0 0 187.5 182.6" style="enable-background:new 0 0 187.5 182.6;" xml:space="preserve">
<style type="text/css">
	.st0{fill:none;}
	.st1{fill:#ED1C25;}
	.st2{fill:#FFFFFF;}
</style>
<polygon class="st0" points="114.5,105.6 114.5,71.1 80.1,71.1 76.3,71.1 72.5,71.1 72.5,78.6 72.5,113.1 110.7,113.1 114.5,113.1 
	114.5,109.3 "/>
<path class="st1" d="M166.4,19.2C154.8,7.6,139.3,1.2,122.8,1.2c-16.5,0-32,6.4-43.6,18.1c-9.1,9.1-15,20.6-17.2,33
	c-0.2,1.3-0.4,2.5-0.5,3.8c-0.1,1.3-0.2,2.5-0.3,3.8c-0.1,1-0.1,2-0.1,3l0,8.4V75l0,3.8l0,45.7l45.8,0h3.8h3.8
	c0.1-1,0.1-2.1,0.1-3.1v-8.3l-3.8,0H72.5l0-34.5v-7.5l0-8.3c0-1,0-2.1,0.1-3.1c0.1-1.3,0.2-2.5,0.4-3.8c0.2-1.3,0.4-2.5,0.7-3.8
	c2.1-9.6,6.9-18.2,13.6-24.9c9.1-9.1,21.7-14.7,35.5-14.7c27.7,0,50.3,22.6,50.3,50.3c0,13.9-5.6,26.4-14.7,35.5
	c-6.7,6.7-15.3,11.5-24.9,13.6v1l0,8.4c0,0.7,0,1.5,0,2.2c12.4-2.1,23.9-8.1,33-17.2c11.7-11.7,18.1-27.1,18.1-43.6
	C184.5,46.4,178.1,30.9,166.4,19.2z"/>
<path class="st2" d="M72.5,70.1h3.8h3.8l34.5,0l0,34.5v3.8v3.8v8.3c0,1,0,2.1-0.1,3.1c-0.1,1.3-0.2,2.5-0.4,3.8
	c-0.2,1.3-0.4,2.5-0.7,3.8c-2.1,9.6-6.9,18.2-13.6,24.9c-9.1,9.1-21.7,14.7-35.5,14.7c-27.7,0-50.3-22.6-50.3-50.3
	c0-13.9,5.6-26.4,14.7-35.5c6.7-6.7,15.3-11.5,24.9-13.6v-9.4c0-0.7,0-1.5,0-2.2c-12.4,2.1-23.9,8.1-33,17.2
	C9,88.4,2.6,103.9,2.6,120.4c0,16.5,6.4,32,18.1,43.6c11.7,11.7,27.1,18.1,43.6,18.1c16.5,0,32-6.4,43.6-18.1
	c10.9-10.9,17.3-25.2,18-40.6c0-0.5,0-1,0.1-1.5c0-0.3,0-0.5,0-0.8c0-0.3,0-0.5,0-0.8l0,0V112l0-53.3l-45.8,0l-3.8,0l-3.8,0
	c-0.1,1-0.1,2.1-0.1,3.1L72.5,70.1z"/>
</svg>
